<?xml version="1.0" encoding="UTF-8"?>
<svg xmlns="http://www.w3.org/2000/svg" version="1.1" viewBox="0 0 481.9 481.9">
  <defs>
    <style>
      .cls-1 {
        fill: #df4683;
      }
    </style>
  </defs>
  <!-- Generator: Adobe Illustrator 28.7.5, SVG Export Plug-In . SVG Version: 1.2.0 Build 176)  -->
  <g>
    <g id="_레이어_1">
      <path class="cls-1" d="M243.4,36.1c4,4.3,8,8.6,12,12.9,2,2.1,3.9,4.3,6,6.4,1.2,1.2,1.1,2-.1,3.1-8.3,7.8-16.6,15.6-24.9,23.4-1,.9-1.9,2-2.9,3,.8.4,1.6,0,2.4,0,22.8-.5,44.9,2.9,66.3,10.7,23.8,8.7,44.9,21.8,63.2,39.3,26.5,25.3,43.6,55.9,51.7,91.6,3.1,13.8,4.6,27.7,4.3,41.8-.5,24.9-5.9,48.7-16.2,71.4-9.5,20.9-22.5,39.4-39.1,55.3-25.3,24.4-55.3,40-89.8,47-14.6,3-29.4,4.3-44.3,3.5-21.8-1.1-42.8-6.1-62.8-14.9-22.5-9.9-42.3-23.7-59.1-41.6-24.8-26.4-40.4-57.6-46.7-93.4-2.1-12.2-3.1-24.5-2.6-36.8.9-23.3,6-45.7,15.6-67.1,9.5-21.2,22.7-39.9,39.3-56.1,4.3-4.2,8.8-8.1,13.5-11.9.8-.6,1.1-.7,1.8.2,5.8,7.5,11.7,15.1,17.6,22.5,1.1,1.4,1.2,2.2-.3,3.5-23.8,19.4-40.3,43.8-49.3,73.1-3.2,10.5-5.1,21.3-5.9,32.4-1.6,23.4,2.2,45.9,11.3,67.5,6.3,15,15,28.5,25.8,40.7,13.3,14.9,28.9,26.6,46.8,35.2,15.1,7.2,31,11.9,47.6,13.5,42.2,4,79.8-7.4,112-34.9,27.7-23.7,44.4-53.9,49.9-90,4.8-32.1-.4-62.7-15.5-91.4-13.7-26.1-33.9-45.9-59.6-60.3-15.4-8.6-31.9-14-49.3-16.6-9.3-1.4-18.6-1.6-27.9-1.3-.2,0-.4,0-.9.2,1.7,1.8,3.2,3.5,4.7,5.2,7,7.4,14.1,14.7,21.2,22,1.3,1.3,1.3,2.1,0,3.3-6.1,5.6-12.1,11.3-18.1,16.9-1,1-1.7.8-2.6-.1-11.4-12-22.8-24.1-34.3-36.1-7.3-7.6-14.6-15.2-21.8-22.8-1.7-1.8-3.4-3.7-5.2-5.5-.9-.9-.9-1.6,0-2.5,9.1-8.6,18.2-17.3,27.2-25.9,5.7-5.5,11.5-10.9,17.3-16.4,6.6-6.2,13.1-12.5,19.7-18.8.4-.4.8-.9,1.2-1.3.3,0,.5,0,.8,0Z"/>
    </g>
  </g>
</svg>